<svg width="488" height="365" viewBox="0 0 488 365" fill="none" xmlns="http://www.w3.org/2000/svg">
<g clip-path="url(#clip0_1104_5940)">
<mask id="mask0_1104_5940" style="mask-type:alpha" maskUnits="userSpaceOnUse" x="0" y="0" width="488" height="365">
<path d="M487.5 0H0.5V365H487.5V0Z" fill="white"/>
</mask>
<g mask="url(#mask0_1104_5940)">
<path d="M487.5 0H0.5V365H487.5V0Z" fill="#F9F9F9"/>
<path opacity="0.698084" d="M393.369 166.279C434.791 166.279 468.369 132.7 468.369 91.2788C468.369 49.8574 434.791 16.2787 393.369 16.2787C351.948 16.2787 318.369 49.8574 318.369 91.2788C318.369 132.7 351.948 166.279 393.369 166.279Z" fill="#E7E7E7"/>
<path opacity="0.698084" d="M393.369 131.279C415.461 131.279 433.369 113.37 433.369 91.2788C433.369 69.1874 415.461 51.2787 393.369 51.2787C371.278 51.2787 353.369 69.1874 353.369 91.2788C353.369 113.37 371.278 131.279 393.369 131.279Z" fill="url(#paint0_linear_1104_5940)"/>
<path opacity="0.698084" fill-rule="evenodd" clip-rule="evenodd" d="M65.7383 407.912C187.835 407.912 254.579 247.738 381.273 247.738C507.966 247.738 587.439 407.912 698.466 407.912C809.493 407.912 -11.5368 407.912 65.7383 407.912Z" fill="url(#paint1_linear_1104_5940)"/>
<path fill-rule="evenodd" clip-rule="evenodd" d="M-307.216 365C-167.475 365 -91.0848 182.5 53.918 182.5C198.921 182.5 289.878 365 416.95 365C544.023 365 -395.658 365 -307.216 365Z" fill="url(#paint2_linear_1104_5940)"/>
</g>
</g>
<defs>
<linearGradient id="paint0_linear_1104_5940" x1="353.369" y1="91.2787" x2="433.369" y2="91.2787" gradientUnits="userSpaceOnUse">
<stop stop-color="#DCDCDC"/>
<stop offset="1" stop-color="#E3E0E0"/>
</linearGradient>
<linearGradient id="paint1_linear_1104_5940" x1="60.5966" y1="327.825" x2="708.81" y2="327.825" gradientUnits="userSpaceOnUse">
<stop stop-color="#EEEEEE"/>
<stop offset="1" stop-color="#D9D9D9"/>
</linearGradient>
<linearGradient id="paint2_linear_1104_5940" x1="-313.1" y1="273.75" x2="428.79" y2="273.75" gradientUnits="userSpaceOnUse">
<stop stop-color="#EBEBEB"/>
<stop offset="1" stop-color="#DDDDDD"/>
</linearGradient>
<clipPath id="clip0_1104_5940">
<rect width="487" height="365" fill="white" transform="translate(0.5)"/>
</clipPath>
</defs>
</svg>
